# xmcd
#
# Track frame offsets:
#  150
#  9742
#  22459
#  41840
#  53105
#  65824
#  74815
#  93133
#  105527
#  119619
#  132493
#  146072
#  160861
#
# Disc length: 2398 seconds
#
# Revision: 0
# Processed by: cddbd v1.5.1PL0 Copyright (c) Steve Scherf et al.
# Submitted via: AltoMP3_Maker 3.0
#
DISCID=cc095c0d
DTITLE=Syd Masters and the Swing Riders - Sunset on the Rio Grande
DYEAR=1900
DGENRE=
TTITLE0=Swingin' at the Cowboy Dance
TTITLE1=Under New Mexico Skies
TTITLE2=Cottonwood Snow
TTITLE3=Sunset on the Rio Grande
TTITLE4=Cowboy Blues
TTITLE5=I'm so lonesome (I could cry)
TTITLE6=When I camped under the stars
TTITLE7=Rodear
TTITLE8=The Last five minutes
TTITLE9=Jingle, Jangle, Jingle
TTITLE10=Won't you ride in my red wagon
TTITLE11=Lonesome Drivers waltz
TTITLE12=La Veta
EXTD=
EXTT0=
EXTT1=
EXTT2=
EXTT3=
EXTT4=
EXTT5=
EXTT6=
EXTT7=
EXTT8=
EXTT9=
EXTT10=
EXTT11=
EXTT12=
PLAYORDER=
